<?xml version="1.0" encoding="UTF-8" standalone="no"?>
<svg width="293px" height="223px" viewBox="0 0 293 223" version="1.1" xmlns="http://www.w3.org/2000/svg" xmlns:xlink="http://www.w3.org/1999/xlink">
    <!-- Generator: Sketch 42 (36781) - http://www.bohemiancoding.com/sketch -->
    <title>cloudday</title>
    <desc>Created with Sketch.</desc>
    <defs></defs>
    <g id="Page-1" stroke="none" stroke-width="1" fill="none" fill-rule="evenodd">
        <g id="1024" transform="translate(-50.000000, -401.000000)">
            <g id="cloudday" transform="translate(50.000000, 401.000000)">
                <circle id="Oval" fill="#FBC02D" cx="188" cy="105" r="56.25"></circle>
                <path d="M184.25,3.75002394 C184.25,1.6789429 185.933146,0 188,0 C190.071068,0 191.75,1.68414821 191.75,3.75002394 L191.75,33.7499761 C191.75,35.8210571 190.066854,37.5 188,37.5 C185.928932,37.5 184.25,35.8158518 184.25,33.7499761 L184.25,3.75002394 Z M256.942894,30.7538049 C258.40737,29.2893295 260.784726,29.2923018 262.246212,30.753788 C263.710678,32.2182541 263.70699,34.596311 262.246195,36.0571058 L241.033026,57.2702753 C239.56855,58.7347508 237.191194,58.7317785 235.729708,57.2702923 C234.265242,55.8058262 234.26893,53.4277692 235.729725,51.9669745 L256.942894,30.7538049 Z M289.249976,101.25 C291.321057,101.25 293,102.933146 293,105 C293,107.071068 291.315852,108.75 289.249976,108.75 L259.250024,108.75 C257.178943,108.75 255.5,107.066854 255.5,105 C255.5,102.928932 257.184148,101.25 259.250024,101.25 L289.249976,101.25 Z M262.246195,173.942894 C263.710671,175.40737 263.707698,177.784726 262.246212,179.246212 C260.781746,180.710678 258.403689,180.70699 256.942894,179.246195 L235.729725,158.033026 C234.265249,156.56855 234.268222,154.191194 235.729708,152.729708 C237.194174,151.265242 239.572231,151.26893 241.033026,152.729725 L262.246195,173.942894 Z M191.75,206.249976 C191.75,208.321057 190.066854,210 188,210 C185.928932,210 184.25,208.315852 184.25,206.249976 L184.25,176.250024 C184.25,174.178943 185.933146,172.5 188,172.5 C190.071068,172.5 191.75,174.184148 191.75,176.250024 L191.75,206.249976 Z M119.057106,179.246195 C117.59263,180.710671 115.215274,180.707698 113.753788,179.246212 C112.289322,177.781746 112.29301,175.403689 113.753805,173.942894 L134.966974,152.729725 C136.43145,151.265249 138.808806,151.268222 140.270292,152.729708 C141.734758,154.194174 141.73107,156.572231 140.270275,158.033026 L119.057106,179.246195 Z M86.7500239,108.75 C84.6789429,108.75 83,107.066854 83,105 C83,102.928932 84.6841482,101.25 86.7500239,101.25 L116.749976,101.25 C118.821057,101.25 120.5,102.933146 120.5,105 C120.5,107.071068 118.815852,108.75 116.749976,108.75 L86.7500239,108.75 Z M113.753805,36.0571058 C112.289329,34.5926303 112.292302,32.2152742 113.753788,30.753788 C115.218254,29.2893219 117.596311,29.2930102 119.057106,30.7538049 L140.270275,51.9669745 C141.734751,53.4314499 141.731778,55.8088061 140.270292,57.2702923 C138.805826,58.7347584 136.427769,58.7310701 134.966974,57.2702753 L113.753805,36.0571058 Z" id="Rectangle-2" fill="#FBC02D"></path>
                <path d="M170,223 C211.421356,223 245,189.421356 245,148 C245,106.578644 211.421356,73 170,73 C134.027744,73 103.970465,98.325024 96.6847609,132.118473 C86.598595,120.411659 71.6648403,113 55,113 C24.6243388,113 0,137.624339 0,168 C0,198.375661 24.6243388,223 55,223 L170,223 Z" id="Combined-Shape-Copy" fill="#FFFFFF"></path>
            </g>
        </g>
    </g>
</svg>