<?xml version="1.0" encoding="UTF-8" standalone="no"?>
<svg width="245px" height="201px" viewBox="0 0 245 201" version="1.1" xmlns="http://www.w3.org/2000/svg" xmlns:xlink="http://www.w3.org/1999/xlink">
    <!-- Generator: Sketch 42 (36781) - http://www.bohemiancoding.com/sketch -->
    <title>fog</title>
    <desc>Created with Sketch.</desc>
    <defs></defs>
    <g id="Page-1" stroke="none" stroke-width="1" fill="none" fill-rule="evenodd">
        <g id="1024" transform="translate(-390.000000, -738.000000)">
            <g id="fog" transform="translate(390.000000, 738.000000)">
                <g id="cloud-copy-2" fill-opacity="0.9" fill="#FFFFFF">
                    <path d="M170,150 C211.421356,150 245,116.421356 245,75 C245,33.5786438 211.421356,0 170,0 C134.027744,0 103.970465,25.325024 96.6847609,59.1184728 C86.598595,47.4116586 71.6648403,40 55,40 C24.6243388,40 0,64.6243388 0,95 C0,125.375661 24.6243388,150 55,150 L170,150 Z" id="Combined-Shape-Copy"></path>
                </g>
                <rect id="Rectangle-5" fill="#EEEEEE" x="74" y="157" width="100" height="10" rx="5"></rect>
                <rect id="Rectangle-5-Copy" fill="#EEEEEE" x="55" y="174" width="80" height="10" rx="5"></rect>
                <rect id="Rectangle-5-Copy-2" fill="#EEEEEE" x="74" y="191" width="100" height="10" rx="5"></rect>
            </g>
        </g>
    </g>
</svg>