<?xml version="1.0" encoding="UTF-8" standalone="no"?>
<svg width="245px" height="179px" viewBox="0 0 245 179" version="1.1" xmlns="http://www.w3.org/2000/svg" xmlns:xlink="http://www.w3.org/1999/xlink">
    <!-- Generator: Sketch 42 (36781) - http://www.bohemiancoding.com/sketch -->
    <title>rain</title>
    <desc>Created with Sketch.</desc>
    <defs></defs>
    <g id="Page-1" stroke="none" stroke-width="1" fill="none" fill-rule="evenodd">
        <g id="1024" transform="translate(-730.000000, -422.000000)">
            <g id="rain" transform="translate(730.000000, 422.000000)">
                <path d="M170,150 C211.421356,150 245,116.421356 245,75 C245,33.5786438 211.421356,0 170,0 C134.027744,0 103.970465,25.325024 96.6847609,59.1184728 C86.598595,47.4116586 71.6648403,40 55,40 C24.6243388,40 0,64.6243388 0,95 C0,125.375661 24.6243388,150 55,150 L170,150 Z" id="Combined-Shape" fill-opacity="0.9" fill="#FFFFFF"></path>
                <g id="drops" transform="translate(20.000000, 151.000000)" fill="#29B6F6">
                    <rect id="Rectangle-4" transform="translate(41.584077, 14.584077) rotate(45.000000) translate(-41.584077, -14.584077) " x="37.4590774" y="-1.91592264" width="8.25" height="33" rx="4.125"></rect>
                    <rect id="Rectangle-4-Copy-5" transform="translate(14.584077, 14.584077) rotate(45.000000) translate(-14.584077, -14.584077) " x="10.4590774" y="-1.91592264" width="8.25" height="33" rx="4.125"></rect>
                    <rect id="Rectangle-4-Copy" transform="translate(68.584077, 14.584077) rotate(45.000000) translate(-68.584077, -14.584077) " x="64.4590774" y="-1.91592264" width="8.25" height="33" rx="4.125"></rect>
                    <rect id="Rectangle-4-Copy-2" transform="translate(95.584077, 14.584077) rotate(45.000000) translate(-95.584077, -14.584077) " x="91.4590774" y="-1.91592264" width="8.25" height="33" rx="4.125"></rect>
                    <rect id="Rectangle-4-Copy-3" transform="translate(122.584077, 14.584077) rotate(45.000000) translate(-122.584077, -14.584077) " x="118.459077" y="-1.91592264" width="8.25" height="33" rx="4.125"></rect>
                    <rect id="Rectangle-4-Copy-4" transform="translate(149.584077, 14.584077) rotate(45.000000) translate(-149.584077, -14.584077) " x="145.459077" y="-1.91592264" width="8.25" height="33" rx="4.125"></rect>
                </g>
            </g>
        </g>
    </g>
</svg>