<?xml version="1.0" encoding="UTF-8" standalone="no"?>
<svg width="245px" height="195px" viewBox="0 0 245 195" version="1.1" xmlns="http://www.w3.org/2000/svg" xmlns:xlink="http://www.w3.org/1999/xlink">
    <!-- Generator: Sketch 42 (36781) - http://www.bohemiancoding.com/sketch -->
    <title>snow</title>
    <desc>Created with Sketch.</desc>
    <defs></defs>
    <g id="Page-1" stroke="none" stroke-width="1" fill="none" fill-rule="evenodd">
        <g id="1024" transform="translate(-739.000000, -738.000000)" fill="#FFFFFF">
            <g id="snow" transform="translate(739.000000, 738.000000)">
                <path d="M170,150 C211.421356,150 245,116.421356 245,75 C245,33.5786438 211.421356,0 170,0 C134.027744,0 103.970465,25.325024 96.6847609,59.1184728 C86.598595,47.4116586 71.6648403,40 55,40 C24.6243388,40 0,64.6243388 0,95 C0,125.375661 24.6243388,150 55,150 L170,150 Z" id="Combined-Shape-Copy" fill-opacity="0.9"></path>
                <g id="Group" transform="translate(146.000000, 155.000000)">
                    <rect id="Rectangle-6" x="17" y="0" width="5" height="40" rx="2.5"></rect>
                    <rect id="Rectangle-6" transform="translate(20.000000, 20.000000) rotate(90.000000) translate(-20.000000, -20.000000) " x="17.5" y="0" width="5" height="40" rx="2.5"></rect>
                    <rect id="Rectangle-6" transform="translate(19.909903, 19.409903) rotate(135.000000) translate(-19.909903, -19.409903) " x="17.4099026" y="-0.590097423" width="5" height="40" rx="2.5"></rect>
                    <rect id="Rectangle-6" transform="translate(19.909903, 19.409903) rotate(45.000000) translate(-19.909903, -19.409903) " x="17.4099026" y="-0.590097423" width="5" height="40" rx="2.5"></rect>
                </g>
                <g id="Group-Copy" transform="translate(94.000000, 155.000000)">
                    <rect id="Rectangle-6" x="17" y="0" width="5" height="40" rx="2.5"></rect>
                    <rect id="Rectangle-6" transform="translate(20.000000, 20.000000) rotate(90.000000) translate(-20.000000, -20.000000) " x="17.5" y="0" width="5" height="40" rx="2.5"></rect>
                    <rect id="Rectangle-6" transform="translate(19.909903, 19.409903) rotate(135.000000) translate(-19.909903, -19.409903) " x="17.4099026" y="-0.590097423" width="5" height="40" rx="2.5"></rect>
                    <rect id="Rectangle-6" transform="translate(19.909903, 19.409903) rotate(45.000000) translate(-19.909903, -19.409903) " x="17.4099026" y="-0.590097423" width="5" height="40" rx="2.5"></rect>
                </g>
                <g id="Group-Copy-2" transform="translate(42.000000, 155.000000)">
                    <rect id="Rectangle-6" x="17" y="0" width="5" height="40" rx="2.5"></rect>
                    <rect id="Rectangle-6" transform="translate(20.000000, 20.000000) rotate(90.000000) translate(-20.000000, -20.000000) " x="17.5" y="0" width="5" height="40" rx="2.5"></rect>
                    <rect id="Rectangle-6" transform="translate(19.909903, 19.409903) rotate(135.000000) translate(-19.909903, -19.409903) " x="17.4099026" y="-0.590097423" width="5" height="40" rx="2.5"></rect>
                    <rect id="Rectangle-6" transform="translate(19.909903, 19.409903) rotate(45.000000) translate(-19.909903, -19.409903) " x="17.4099026" y="-0.590097423" width="5" height="40" rx="2.5"></rect>
                </g>
            </g>
        </g>
    </g>
</svg>