<?xml version="1.0" encoding="UTF-8" standalone="no"?>
<svg width="230px" height="230px" viewBox="0 0 230 230" version="1.1" xmlns="http://www.w3.org/2000/svg" xmlns:xlink="http://www.w3.org/1999/xlink">
    <!-- Generator: Sketch 42 (36781) - http://www.bohemiancoding.com/sketch -->
    <title>sun</title>
    <desc>Created with Sketch.</desc>
    <defs></defs>
    <g id="Page-1" stroke="none" stroke-width="1" fill="none" fill-rule="evenodd">
        <g id="1024" transform="translate(-50.000000, -57.000000)" fill="#FBC02D">
            <g id="sun" transform="translate(50.000000, 57.000000)">
                <circle id="Oval" cx="115" cy="115" r="61.6071429"></circle>
                <path d="M110.892857,4.10716907 C110.892857,1.83884223 112.736303,0 115,0 C117.268312,0 119.107143,1.84454328 119.107143,4.10716907 L119.107143,36.9642595 C119.107143,39.2325863 117.263697,41.0714286 115,41.0714286 C112.731688,41.0714286 110.892857,39.2268853 110.892857,36.9642595 L110.892857,4.10716907 Z M190.508884,33.6827387 C192.112833,32.0787894 194.716604,32.0820448 196.31728,33.6827202 C197.921219,35.2866592 197.917179,37.8911978 196.317261,39.4911158 L173.08379,62.7245873 C171.479841,64.3285366 168.87607,64.3252812 167.275394,62.7246058 C165.671455,61.1206668 165.675495,58.5161282 167.275413,56.9162102 L190.508884,33.6827387 Z M225.892831,110.892857 C228.161158,110.892857 230,112.736303 230,115 C230,117.268312 228.155457,119.107143 225.892831,119.107143 L193.035741,119.107143 C190.767414,119.107143 188.928571,117.263697 188.928571,115 C188.928571,112.731688 190.773115,110.892857 193.035741,110.892857 L225.892831,110.892857 Z M196.317261,190.508884 C197.921211,192.112833 197.917955,194.716604 196.31728,196.31728 C194.713341,197.921219 192.108802,197.917179 190.508884,196.317261 L167.275413,173.08379 C165.671463,171.479841 165.674719,168.87607 167.275394,167.275394 C168.879333,165.671455 171.483872,165.675495 173.08379,167.275413 L196.317261,190.508884 Z M119.107143,225.892831 C119.107143,228.161158 117.263697,230 115,230 C112.731688,230 110.892857,228.155457 110.892857,225.892831 L110.892857,193.035741 C110.892857,190.767414 112.736303,188.928571 115,188.928571 C117.268312,188.928571 119.107143,190.773115 119.107143,193.035741 L119.107143,225.892831 Z M39.4911158,196.317261 C37.8871665,197.921211 35.2833955,197.917955 33.6827202,196.31728 C32.0787811,194.713341 32.0828207,192.108802 33.6827387,190.508884 L56.9162102,167.275413 C58.5201594,165.671463 61.1239305,165.674719 62.7246058,167.275394 C64.3285449,168.879333 64.3245053,171.483872 62.7245873,173.08379 L39.4911158,196.317261 Z M4.10716907,119.107143 C1.83884223,119.107143 -3.38635546e-16,117.263697 -7.54469903e-16,115 C-1.17115212e-15,112.731688 1.84454328,110.892857 4.10716907,110.892857 L36.9642595,110.892857 C39.2325863,110.892857 41.0714286,112.736303 41.0714286,115 C41.0714286,117.268312 39.2268853,119.107143 36.9642595,119.107143 L4.10716907,119.107143 Z M33.6827387,39.4911158 C32.0787894,37.8871665 32.0820448,35.2833955 33.6827202,33.6827202 C35.2866592,32.0787811 37.8911978,32.0828207 39.4911158,33.6827387 L62.7245873,56.9162102 C64.3285366,58.5201594 64.3252812,61.1239305 62.7246058,62.7246058 C61.1206668,64.3285449 58.5161282,64.3245053 56.9162102,62.7245873 L33.6827387,39.4911158 Z" id="Rectangle-2"></path>
            </g>
        </g>
    </g>
</svg>